<?xml version="1.0" encoding="UTF-8"?>
<svg width="800px" height="400px" viewBox="0 0 800 400" version="1.1" xmlns="http://www.w3.org/2000/svg" xmlns:xlink="http://www.w3.org/1999/xlink">
    <defs>
        <linearGradient x1="0%" y1="0%" x2="100%" y2="100%" id="gradient-1">
            <stop stop-color="#6366F1" offset="0%"></stop>
            <stop stop-color="#14B8A6" offset="100%"></stop>
        </linearGradient>
        <linearGradient x1="0%" y1="0%" x2="100%" y2="0%" id="gradient-2">
            <stop stop-color="#6366F1" offset="0%"></stop>
            <stop stop-color="#14B8A6" offset="100%"></stop>
        </linearGradient>
        <filter id="shadow" x="-5%" y="-5%" width="110%" height="110%">
            <feDropShadow dx="0" dy="4" stdDeviation="10" flood-color="rgba(0,0,0,0.2)"/>
        </filter>
    </defs>
    
    <!-- 背景 -->
    <rect fill="#F8FAFC" x="0" y="0" width="800" height="400" rx="20"></rect>
    
    <!-- 笔记本电脑 -->
    <g transform="translate(50, 120)" filter="url(#shadow)">
        <rect fill="#F1F5F9" x="0" y="0" width="200" height="140" rx="8"></rect>
        <rect fill="#E2E8F0" x="15" y="15" width="170" height="110" rx="4"></rect>
        <rect fill="#CBD5E1" x="30" y="30" width="50" height="10" rx="2"></rect>
        <rect fill="#CBD5E1" x="30" y="50" width="140" height="10" rx="2"></rect>
        <rect fill="#CBD5E1" x="30" y="70" width="120" height="10" rx="2"></rect>
        <rect fill="#CBD5E1" x="30" y="90" width="90" height="10" rx="2"></rect>
        
        <rect fill="#94A3B8" x="-15" y="140" width="230" height="15" rx="5"></rect>
        <rect fill="#64748B" x="40" y="155" width="120" height="8" rx="4"></rect>
        
        <circle fill="url(#gradient-1)" cx="180" cy="125" r="12"></circle>
        <text x="180" y="130" font-size="18" font-weight="bold" text-anchor="middle" fill="white">1</text>
    </g>
    
    <!-- 模板选择 -->
    <g transform="translate(300, 100)" filter="url(#shadow)">
        <rect fill="#F1F5F9" x="0" y="0" width="200" height="180" rx="8"></rect>
        
        <g transform="translate(20, 20)">
            <rect fill="#E2E8F0" x="0" y="0" width="50" height="70" rx="4"></rect>
            <rect fill="#CBD5E1" x="10" y="10" width="30" height="5" rx="2"></rect>
            <rect fill="#CBD5E1" x="10" y="20" width="20" height="5" rx="2"></rect>
            <rect fill="#CBD5E1" x="10" y="30" width="30" height="5" rx="2"></rect>
            <rect fill="#CBD5E1" x="10" y="40" width="25" height="5" rx="2"></rect>
            <rect fill="#CBD5E1" x="10" y="50" width="30" height="5" rx="2"></rect>
        </g>
        
        <g transform="translate(80, 20)">
            <rect fill="url(#gradient-2)" x="0" y="0" width="50" height="70" rx="4"></rect>
            <rect fill="rgba(255,255,255,0.7)" x="10" y="10" width="30" height="5" rx="2"></rect>
            <rect fill="rgba(255,255,255,0.7)" x="10" y="20" width="20" height="5" rx="2"></rect>
            <rect fill="rgba(255,255,255,0.7)" x="10" y="30" width="30" height="5" rx="2"></rect>
            <rect fill="rgba(255,255,255,0.7)" x="10" y="40" width="25" height="5" rx="2"></rect>
            <rect fill="rgba(255,255,255,0.7)" x="10" y="50" width="30" height="5" rx="2"></rect>
        </g>
        
        <g transform="translate(140, 20)">
            <rect fill="#E2E8F0" x="0" y="0" width="50" height="70" rx="4"></rect>
            <rect fill="#CBD5E1" x="10" y="10" width="30" height="5" rx="2"></rect>
            <rect fill="#CBD5E1" x="10" y="20" width="20" height="5" rx="2"></rect>
            <rect fill="#CBD5E1" x="10" y="30" width="30" height="5" rx="2"></rect>
            <rect fill="#CBD5E1" x="10" y="40" width="25" height="5" rx="2"></rect>
            <rect fill="#CBD5E1" x="10" y="50" width="30" height="5" rx="2"></rect>
        </g>
        
        <g transform="translate(20, 100)">
            <rect fill="#E2E8F0" x="0" y="0" width="50" height="70" rx="4"></rect>
            <rect fill="#CBD5E1" x="10" y="10" width="30" height="5" rx="2"></rect>
            <rect fill="#CBD5E1" x="10" y="20" width="20" height="5" rx="2"></rect>
            <rect fill="#CBD5E1" x="10" y="30" width="30" height="5" rx="2"></rect>
            <rect fill="#CBD5E1" x="10" y="40" width="25" height="5" rx="2"></rect>
            <rect fill="#CBD5E1" x="10" y="50" width="30" height="5" rx="2"></rect>
        </g>
        
        <g transform="translate(80, 100)">
            <rect fill="#E2E8F0" x="0" y="0" width="50" height="70" rx="4"></rect>
            <rect fill="#CBD5E1" x="10" y="10" width="30" height="5" rx="2"></rect>
            <rect fill="#CBD5E1" x="10" y="20" width="20" height="5" rx="2"></rect>
            <rect fill="#CBD5E1" x="10" y="30" width="30" height="5" rx="2"></rect>
            <rect fill="#CBD5E1" x="10" y="40" width="25" height="5" rx="2"></rect>
            <rect fill="#CBD5E1" x="10" y="50" width="30" height="5" rx="2"></rect>
        </g>
        
        <g transform="translate(140, 100)">
            <rect fill="#E2E8F0" x="0" y="0" width="50" height="70" rx="4"></rect>
            <rect fill="#CBD5E1" x="10" y="10" width="30" height="5" rx="2"></rect>
            <rect fill="#CBD5E1" x="10" y="20" width="20" height="5" rx="2"></rect>
            <rect fill="#CBD5E1" x="10" y="30" width="30" height="5" rx="2"></rect>
            <rect fill="#CBD5E1" x="10" y="40" width="25" height="5" rx="2"></rect>
            <rect fill="#CBD5E1" x="10" y="50" width="30" height="5" rx="2"></rect>
        </g>
        
        <circle fill="url(#gradient-1)" cx="180" cy="165" r="12"></circle>
        <text x="180" y="170" font-size="18" font-weight="bold" text-anchor="middle" fill="white">2</text>
    </g>
    
    <!-- 生成的简历 -->
    <g transform="translate(550, 100)" filter="url(#shadow)">
        <rect fill="white" x="0" y="0" width="200" height="250" rx="8"></rect>
        
        <rect fill="url(#gradient-2)" x="0" y="0" width="200" height="40" rx="8 8 0 0"></rect>
        <rect fill="white" x="20" y="15" width="80" height="10" rx="2"></rect>
        
        <circle fill="white" cx="30" cy="70" r="20"></circle>
        <rect fill="#E2E8F0" x="60" y="55" width="120" height="10" rx="2"></rect>
        <rect fill="#E2E8F0" x="60" y="75" width="80" height="8" rx="2"></rect>
        
        <rect fill="#F1F5F9" x="20" y="100" width="160" height="1"></rect>
        
        <rect fill="#E2E8F0" x="20" y="110" width="70" height="10" rx="2"></rect>
        <rect fill="#F8FAFC" x="20" y="125" width="160" height="35" rx="4"></rect>
        <rect fill="#E2E8F0" x="30" y="135" width="120" height="5" rx="2"></rect>
        <rect fill="#E2E8F0" x="30" y="145" width="100" height="5" rx="2"></rect>
        
        <rect fill="#E2E8F0" x="20" y="170" width="70" height="10" rx="2"></rect>
        <rect fill="#F8FAFC" x="20" y="185" width="160" height="35" rx="4"></rect>
        <rect fill="#E2E8F0" x="30" y="195" width="120" height="5" rx="2"></rect>
        <rect fill="#E2E8F0" x="30" y="205" width="100" height="5" rx="2"></rect>
        
        <g transform="translate(165, 230)">
            <circle fill="#10B981" cx="12" cy="12" r="12"></circle>
            <path d="M6,12 L10,16 L18,8" stroke="white" stroke-width="2" stroke-linecap="round" stroke-linejoin="round" fill="none"></path>
            <text x="12" y="35" font-size="14" text-anchor="middle" fill="#10B981">3</text>
        </g>
    </g>
    
    <!-- 连接箭头 -->
    <g>
        <path d="M250,180 C270,180 280,180 300,180" stroke="url(#gradient-2)" stroke-width="3" stroke-dasharray="5,5" fill="none"></path>
        <polygon fill="url(#gradient-2)" points="295,175 305,180 295,185"></polygon>
        
        <path d="M500,180 C520,180 530,180 550,180" stroke="url(#gradient-2)" stroke-width="3" stroke-dasharray="5,5" fill="none"></path>
        <polygon fill="url(#gradient-2)" points="545,175 555,180 545,185"></polygon>
    </g>
</svg> 